# xmcd
#
# Track frame offsets: 
#        150
#        13117
#        23680
#        32225
#        40702
#        52897
#        64570
#        74050
#        83040
#        94032
#
# Disc length: 1418 seconds
#
# Revision: 0
# Processed by: cddbd v1.4PL0 Copyright (c) Steve Scherf et al.
# Submitted via: ExactAudioCopy v0.90b2
#
DISCID=7705880a
DTITLE=Johnny Cash - The Greatest Hits of Johnny Cash (disk 2)
DYEAR=1900
DGENRE=Country
TTITLE0=I Walk the Line
TTITLE1=There You Go
TTITLE2=Guess Things Happen That Way
TTITLE3=The Wreck of the Old 97
TTITLE4=Home of the Blues
TTITLE5=Big River
TTITLE6=Luther's Boogie
TTITLE7=Katy Too
TTITLE8=Train of Love
TTITLE9=Give My Love to Rose
EXTD=
EXTT0=
EXTT1=
EXTT2=
EXTT3=
EXTT4=
EXTT5=
EXTT6=
EXTT7=
EXTT8=
EXTT9=
PLAYORDER=
